<svg width="64" height="64" viewBox="0 0 64 64" fill="none" xmlns="http://www.w3.org/2000/svg">
<path d="M55 38H52.5" stroke="#FFD300" stroke-width="1.5" stroke-miterlimit="2" stroke-linecap="round" stroke-linejoin="round"/>
<path d="M45.5 32H37.5" stroke="#FFD300" stroke-width="1.5" stroke-miterlimit="2" stroke-linecap="round" stroke-linejoin="round"/>
<path d="M33.75 32H18.5C18.5 32 18.266 27.835 22.5 24" stroke="#FFD300" stroke-width="1.5" stroke-miterlimit="2" stroke-linecap="round" stroke-linejoin="round"/>
<path d="M20 50.5C23.0376 50.5 25.5 48.0376 25.5 45C25.5 41.9624 23.0376 39.5 20 39.5C16.9624 39.5 14.5 41.9624 14.5 45C14.5 48.0376 16.9624 50.5 20 50.5Z" stroke="#FFD300" stroke-width="1.5" stroke-miterlimit="2" stroke-linecap="round" stroke-linejoin="round"/>
<path d="M38.5 45C38.5 41.964 40.964 39.5 44 39.5C47.036 39.5 49.5 41.964 49.5 45C49.5 48.036 47.036 50.5 44 50.5C42.071 50.5 40.372 49.505 39.391 48" stroke="#FFD300" stroke-width="1.5" stroke-miterlimit="2" stroke-linecap="round" stroke-linejoin="round"/>
<path d="M14.5 45H11.213C9.438 45 8 43.562 8 41.787C8 41.26 8 40.724 8 40.228C8 38.997 8.998 38 10.228 38H10.23C10.686 38 11.086 37.698 11.212 37.259C11.631 35.792 12.6 32.4 13.453 29.414C14.369 26.209 17.298 24 20.63 24H37.821C39.719 24 41.405 25.215 42.005 27.016C42.094 27.281 42.185 27.554 42.277 27.831C43.306 30.918 46.195 33 49.449 33H50.106C51.404 33 52.649 33.516 53.567 34.433C54.484 35.351 55 36.596 55 37.894V38C55.552 38 56 38.448 56 39C56 39.735 56 40.777 56 41.787C56 43.562 54.562 45 52.787 45H49.5" stroke="#FFD300" stroke-width="1.5" stroke-miterlimit="2" stroke-linecap="round" stroke-linejoin="round"/>
<path d="M38.5 45H29" stroke="#FFD300" stroke-width="1.5" stroke-miterlimit="2" stroke-linecap="round" stroke-linejoin="round"/>
<path d="M39.491 20.741C42.528 19.928 45.654 21.733 46.467 24.769" stroke="#FFD300" stroke-width="1.5" stroke-miterlimit="2" stroke-linecap="round" stroke-linejoin="round"/>
<path d="M38.385 16.615C43.699 15.191 49.17 18.349 50.594 23.664" stroke="#FFD300" stroke-width="1.5" stroke-miterlimit="2" stroke-linecap="round" stroke-linejoin="round"/>
<path d="M37.279 12.488C44.871 10.454 52.687 14.966 54.721 22.558" stroke="#FFD300" stroke-width="1.5" stroke-miterlimit="2" stroke-linecap="round" stroke-linejoin="round"/>
</svg>
